<svg width="129" height="31" fill="none" xmlns="http://www.w3.org/2000/svg"><path d="M81.055 25.841c.365.645.107 1.462-.58 1.806-.688.344-1.548.108-1.914-.537l-1.462-2.58c-.365-.646-.108-1.463.58-1.806.689-.345 1.549-.108 1.914.537l1.462 2.58z" fill="#CF3417"/><path d="M6.235 14.403h-3.72v3.354h3.72A1.66 1.66 0 007.89 16.08c0-.903-.752-1.677-1.655-1.677zm-3.72-2.43h3.462c.752 0 1.333-.602 1.333-1.354 0-.774-.58-1.398-1.333-1.398H2.515v2.752zM0 7.867c0-.58.559-1.075 1.247-1.075h4.708c2.172 0 3.957 1.526 3.957 3.633 0 1.377-.86 2.15-1.549 2.58 1.054.473 2.15 1.527 2.15 3.204 0 2.258-1.913 3.934-4.256 3.934h-5.01C.559 20.143 0 19.67 0 19.069V7.867zM18.189 9.78c.516.13.924.603.924 1.205 0 .688-.515 1.247-1.182 1.247-.108 0-.28-.043-.688-.065-1.354-.086-2.343 1.204-2.343 2.709v4.687c0 .602-.56 1.097-1.226 1.097-.688 0-1.226-.495-1.226-1.097v-8.707c0-.56.516-1.011 1.14-1.011.623 0 1.14.451 1.14 1.01v.581h.043c.515-.925 1.246-1.763 2.601-1.763.236 0 .516.043.817.107zm6.665 2.322a3.065 3.065 0 00-3.053 3.053c0 1.678 1.376 3.075 3.053 3.075 1.72 0 3.053-1.376 3.053-3.075a3.05 3.05 0 00-3.053-3.053zm0 8.558c-3.16 0-5.74-2.344-5.74-5.505 0-3.138 2.558-5.482 5.74-5.482 3.182 0 5.74 2.344 5.74 5.482-.021 3.161-2.558 5.505-5.74 5.505zm16.49-1.936c.387.409.301 1.119-.258 1.613-.515.409-1.225.473-1.59 0l-3.806-4.128c-.236-.28-.365-.559-.365-.946 0-.387.128-.666.365-.946l3.741-4.107c.387-.473 1.097-.408 1.591 0 .538.495.645 1.204.258 1.613l-3.075 3.44 3.14 3.461zm-9.33-10.836c0-.602.58-1.075 1.29-1.075.709 0 1.29.495 1.29 1.075v11.675c0 .602-.581 1.075-1.29 1.075-.71 0-1.29-.495-1.29-1.075V7.888zm18.726 6.236a3.035 3.035 0 00-2.903-2.065 3.028 3.028 0 00-2.88 2.065h5.783zm1.483 2.193h-7.288c.43 1.247 1.655 2.064 2.988 2.064.925 0 2.043-.345 2.688-.925.366-.387 1.032-.387 1.527.043.473.387.58 1.075.236 1.462-1.118 1.075-2.795 1.677-4.45 1.677-3.182 0-5.87-2.365-5.87-5.504 0-3.139 2.602-5.483 5.783-5.483 3.118 0 5.698 2.43 5.698 5.483-.021.623-.602 1.183-1.311 1.183zm8.493-6.537c.516.13.925.603.925 1.205 0 .688-.517 1.247-1.183 1.247-.108 0-.28-.043-.688-.065-1.355-.086-2.365 1.204-2.365 2.709v4.687c0 .602-.559 1.097-1.226 1.097-.688 0-1.225-.495-1.225-1.097v-8.707c0-.56.516-1.011 1.14-1.011.623 0 1.139.451 1.139 1.01v.581h.043c.516-.925 1.247-1.763 2.601-1.763.258 0 .538.043.839.107zm6.88 6.107a.306.306 0 01-.258-.13 6.574 6.574 0 01-1.419-4.063c0-3.182 2.3-5.913 5.375-6.321a.308.308 0 01.344.215c.043.15 0 .301-.129.387-2.451 1.548-3.913 4.236-3.913 7.181 0 .774.108 1.548.301 2.3a.347.347 0 01-.15.388.399.399 0 01-.151.043z" fill="#50A2DA"/><path d="M87.763 14.51c0-1.29-.989-2.322-2.236-2.322-1.269 0-2.258 1.032-2.258 2.322v5.074c0 .602-.58 1.076-1.268 1.076-.688 0-1.269-.495-1.269-1.076V7.91c0-.602.581-1.075 1.269-1.075s1.268.494 1.268 1.075v3.569c.022 0 .043.022.043 0 .474-.838 1.527-1.72 2.968-1.72 2.407 0 3.998 1.784 3.998 4.45v5.397c0 .602-.58 1.075-1.268 1.075-.688 0-1.269-.495-1.269-1.075V14.51h.022zm12.663-.386a3.034 3.034 0 00-2.902-2.065 3.028 3.028 0 00-2.881 2.065h5.783zm1.484 2.193h-7.288c.43 1.247 1.655 2.064 2.988 2.064.924 0 2.043-.345 2.687-.925.366-.387 1.054-.387 1.527.043.473.387.581 1.075.237 1.462-1.118 1.075-2.796 1.677-4.451 1.677-3.182 0-5.87-2.365-5.87-5.504 0-3.139 2.602-5.483 5.784-5.483 3.117 0 5.697 2.43 5.697 5.483-.021.623-.602 1.183-1.311 1.183zm11.395 1.311c.473.494.559 1.226.043 1.677a5.35 5.35 0 01-3.591 1.355c-3.117 0-5.611-2.366-5.611-5.505 0-3.138 2.494-5.482 5.611-5.482 1.376 0 2.624.473 3.591 1.354.516.474.451 1.14-.043 1.678-.452.494-1.183.559-1.591.15a2.91 2.91 0 00-1.935-.71c-1.677 0-2.988 1.377-2.988 3.053 0 1.677 1.332 3.075 2.988 3.075.731 0 1.419-.28 1.935-.731.408-.473 1.139-.387 1.591.086zm11.631 1.096c.387.409.302 1.119-.257 1.613-.516.409-1.226.473-1.592 0l-3.783-4.128c-.237-.28-.366-.559-.366-.946 0-.387.129-.666.366-.946l3.74-4.107c.387-.473 1.097-.408 1.592 0 .537.495.645 1.204.258 1.613l-3.075 3.44 3.117 3.461zm-9.309-10.836c0-.602.58-1.075 1.29-1.075.709 0 1.29.495 1.29 1.075v11.675c0 .602-.581 1.075-1.29 1.075-.71 0-1.29-.495-1.29-1.075V7.888zm-15.781 21.93a.528.528 0 00.516-.537.524.524 0 00-.516-.516.523.523 0 00-.516.516c.022.301.237.538.516.538zm-.516.194c0 .107-.086.194-.215.194-.108 0-.215-.087-.215-.194v-2c0-.107.107-.193.215-.193s.215.086.215.194v.623a.682.682 0 01.58-.301c.495 0 .882.409.882.946 0 .538-.387.946-.882.946a.686.686 0 01-.602-.344l.022.129zm1.978.387l.193-.409-.688-1.397c-.043-.086 0-.215.129-.258.108-.043.237-.021.28.086l.516 1.053.516-1.053c.043-.086.172-.129.301-.086.107.043.172.172.129.258l-.989 2c-.043.085-.172.128-.301.085-.065-.064-.129-.172-.086-.279zm3.333-4.58c0-.214.193-.386.43-.386h2.536c.215 0 .366.193.366.43 0 .236-.172.43-.366.43h-2.085v1.075h1.677c.193 0 .365.193.365.43 0 .236-.172.43-.365.43h-1.677v1.612c0 .215-.194.387-.43.387-.237 0-.43-.172-.43-.387v-4.02h-.021zm4.3 0c0-.214.215-.365.473-.365s.472.172.472.366v4.02c0 .215-.214.366-.472.366s-.473-.172-.473-.366v-4.02zm2.386.022c0-.215.236-.409.537-.409.237 0 .431.108.517.259l1.827 2.902h.021v-2.795c0-.215.216-.365.452-.365.258 0 .451.172.451.365v3.999c0 .215-.236.409-.537.409-.237 0-.43-.108-.516-.258l-1.828-2.925h-.021v2.796c0 .215-.215.365-.451.365-.237 0-.452-.172-.452-.366v-3.977zm7.353.451h-1.183v1.505h1.183c.408 0 .774-.344.774-.752a.766.766 0 00-.774-.753zm-2.107-.473c0-.214.215-.386.451-.386h1.677c.946 0 1.699.688 1.699 1.612 0 .688-.409 1.225-.968 1.462l.559 1.096c.108.194 0 .43-.236.56-.215.107-.495.021-.581-.151l-.688-1.355h-.989v1.183c0 .215-.214.387-.451.387-.236 0-.452-.172-.452-.387v-4.02h-.021zm6.966.925h-.043l-.624 1.72h1.312l-.645-1.72zm2.107 2.924c.065.194-.043.409-.28.516-.236.064-.494 0-.58-.194l-.301-.688h-1.935l-.301.689c-.086.193-.344.258-.58.193-.237-.086-.345-.323-.28-.516l1.57-3.934c.193-.409.924-.409 1.096 0l1.591 3.934zM71.96 22.1c-5.955 0-10.814-4.816-10.814-10.75S66.005.6 71.96.6a10.87 10.87 0 017.956 3.461 1.312 1.312 0 01-.065 1.828c-.537.473-1.355.451-1.828-.065a8.247 8.247 0 00-6.041-2.623c-4.537 0-8.213 3.655-8.213 8.17 0 4.494 3.676 8.17 8.213 8.17a8.227 8.227 0 005.654-2.236 1.292 1.292 0 111.785 1.871 10.994 10.994 0 01-7.46 2.924z" fill="#1A65A1"/><path d="M80.69 25.948c.107.15.021.323-.172.409-.194.086-.452.021-.56-.13l-.602-.816c-.107-.15-.042-.323.172-.409.194-.086.452-.021.56.13l.602.816z" fill="#EF9795"/><path d="M77.207 21.197c.258-.107.537-.064.645.108.107.172-.022.408-.28.537l-1.398.667c-.258.107-.537.064-.645-.108-.107-.172.022-.409.28-.538l1.398-.666z" fill="#CF3417"/><path d="M127.538 3.803c.172 0 .301-.15.301-.344 0-.172-.108-.322-.301-.322h-.581v.666h.581zm.258 1.333l-.387-.903h-.452v.903h-.387v-2.45h.968c.387 0 .709.343.709.773 0 .344-.172.602-.43.731l.43.946h-.451zm-.452-2.88c-.817 0-1.462.752-1.462 1.676 0 .946.645 1.699 1.462 1.699s1.462-.753 1.462-1.699c-.021-.924-.666-1.677-1.462-1.677zm0 3.59c-.924 0-1.677-.86-1.677-1.914 0-1.032.753-1.913 1.677-1.913.903 0 1.656.86 1.656 1.913 0 1.054-.753 1.914-1.656 1.914z" fill="#1A65A1"/></svg>