<svg width="600" height="141" fill="none" xmlns="http://www.w3.org/2000/svg"><path d="M377 118c1.7 3 .5 6.8-2.7 8.4-3.2 1.6-7.2.5-8.9-2.5l-6.8-12c-1.7-3-.5-6.8 2.7-8.4 3.2-1.6 7.2-.5 8.9 2.5l6.8 12z" fill="#CF3417"/><path d="M29 64.8H11.7v15.6H29c4.3 0 7.7-3.5 7.7-7.8 0-4.2-3.5-7.8-7.7-7.8zM11.7 53.5h16.1c3.5 0 6.2-2.8 6.2-6.3 0-3.6-2.7-6.5-6.2-6.5H11.7v12.8zM0 34.4c0-2.7 2.6-5 5.8-5h21.9c10.1 0 18.4 7.1 18.4 16.9 0 6.4-4 10-7.2 12 4.9 2.2 10 7.1 10 14.9 0 10.5-8.9 18.3-19.8 18.3H5.8c-3.2 0-5.8-2.2-5.8-5V34.4zm84.6 8.9c2.4.6 4.3 2.8 4.3 5.6 0 3.2-2.4 5.8-5.5 5.8-.5 0-1.3-.2-3.2-.3C73.9 54 69.3 60 69.3 67v21.8c0 2.8-2.6 5.1-5.7 5.1-3.2 0-5.7-2.3-5.7-5.1V48.3c0-2.6 2.4-4.7 5.3-4.7s5.3 2.1 5.3 4.7V51h.2c2.4-4.3 5.8-8.2 12.1-8.2 1.1 0 2.4.2 3.8.5zm31 10.8c-7.8 0-14.2 6.4-14.2 14.2 0 7.8 6.4 14.3 14.2 14.3 8 0 14.2-6.4 14.2-14.3 0-7.8-6.3-14.2-14.2-14.2zm0 39.8c-14.7 0-26.7-10.9-26.7-25.6 0-14.6 11.9-25.5 26.7-25.5 14.8 0 26.7 10.9 26.7 25.5-.1 14.7-11.9 25.6-26.7 25.6zm76.7-9c1.8 1.9 1.4 5.2-1.2 7.5-2.4 1.9-5.7 2.2-7.4 0L166 73.2c-1.1-1.3-1.7-2.6-1.7-4.4 0-1.8.6-3.1 1.7-4.4l17.4-19.1c1.8-2.2 5.1-1.9 7.4 0 2.5 2.3 3 5.6 1.2 7.5l-14.3 16 14.6 16.1zm-43.4-50.4c0-2.8 2.7-5 6-5s6 2.3 6 5v54.3c0 2.8-2.7 5-6 5s-6-2.3-6-5V34.5zm87.1 29c-2-5.8-7.3-9.6-13.5-9.6-6.1 0-11.4 3.8-13.4 9.6H236zm6.9 10.2H209c2 5.8 7.7 9.6 13.9 9.6 4.3 0 9.5-1.6 12.5-4.3 1.7-1.8 4.8-1.8 7.1.2 2.2 1.8 2.7 5 1.1 6.8-5.2 5-13 7.8-20.7 7.8-14.8 0-27.3-11-27.3-25.6 0-14.6 12.1-25.5 26.9-25.5C237 42.7 249 54 249 68.2c-.1 2.9-2.8 5.5-6.1 5.5zm39.5-30.4c2.4.6 4.3 2.8 4.3 5.6 0 3.2-2.4 5.8-5.5 5.8-.5 0-1.3-.2-3.2-.3-6.3-.4-11 5.6-11 12.6v21.8c0 2.8-2.6 5.1-5.7 5.1-3.2 0-5.7-2.3-5.7-5.1V48.3c0-2.6 2.4-4.7 5.3-4.7s5.3 2.1 5.3 4.7V51h.2c2.4-4.3 5.8-8.2 12.1-8.2 1.2 0 2.5.2 3.9.5zm32 28.4c-.5 0-.9-.2-1.2-.6-4.2-5.3-6.6-12-6.6-18.9 0-14.8 10.7-27.5 25-29.4.7-.1 1.4.3 1.6 1 .2.7 0 1.4-.6 1.8-11.4 7.2-18.2 19.7-18.2 33.4 0 3.6.5 7.2 1.4 10.7.2.7-.1 1.4-.7 1.8-.2.1-.5.2-.7.2z" fill="#50A2DA"/><path d="M408.2 65.3c0-6-4.6-10.8-10.4-10.8-5.9 0-10.5 4.8-10.5 10.8v23.6c0 2.8-2.7 5-5.9 5s-5.9-2.3-5.9-5V34.6c0-2.8 2.7-5 5.9-5s5.9 2.3 5.9 5v16.6c.1 0 .2.1.2 0 2.2-3.9 7.1-8 13.8-8 11.2 0 18.6 8.3 18.6 20.7V89c0 2.8-2.7 5-5.9 5s-5.9-2.3-5.9-5V65.3h.1zm58.9-1.8c-2-5.8-7.3-9.6-13.5-9.6-6.1 0-11.4 3.8-13.4 9.6h26.9zm6.9 10.2h-33.9c2 5.8 7.7 9.6 13.9 9.6 4.3 0 9.5-1.6 12.5-4.3 1.7-1.8 4.9-1.8 7.1.2 2.2 1.8 2.7 5 1.1 6.8-5.2 5-13 7.8-20.7 7.8-14.8 0-27.3-11-27.3-25.6 0-14.6 12.1-25.5 26.9-25.5 14.5 0 26.5 11.3 26.5 25.5-.1 2.9-2.8 5.5-6.1 5.5zm53 6.1c2.2 2.3 2.6 5.7.2 7.8-4.5 4-10.3 6.3-16.7 6.3-14.5 0-26.1-11-26.1-25.6 0-14.6 11.6-25.5 26.1-25.5 6.4 0 12.2 2.2 16.7 6.3 2.4 2.2 2.1 5.3-.2 7.8-2.1 2.3-5.5 2.6-7.4.7-2.5-2.2-5.7-3.3-9-3.3-7.8 0-13.9 6.4-13.9 14.2 0 7.8 6.2 14.3 13.9 14.3 3.4 0 6.6-1.3 9-3.4 1.9-2.2 5.3-1.8 7.4.4zm54.1 5.1c1.8 1.9 1.4 5.2-1.2 7.5-2.4 1.9-5.7 2.2-7.4 0l-17.6-19.2c-1.1-1.3-1.7-2.6-1.7-4.4 0-1.8.6-3.1 1.7-4.4l17.4-19.1c1.8-2.2 5.1-1.9 7.4 0 2.5 2.3 3 5.6 1.2 7.5l-14.3 16 14.5 16.1zm-43.3-50.4c0-2.8 2.7-5 6-5s6 2.3 6 5v54.3c0 2.8-2.7 5-6 5s-6-2.3-6-5V34.5zm-73.4 102c1.3 0 2.4-1.1 2.4-2.5 0-1.3-1.1-2.4-2.4-2.4-1.3 0-2.4 1.1-2.4 2.4.1 1.4 1.1 2.5 2.4 2.5zm-2.4.9c0 .5-.4.9-1 .9-.5 0-1-.4-1-.9v-9.3c0-.5.5-.9 1-.9s1 .4 1 .9v2.9c.6-.8 1.4-1.4 2.7-1.4 2.3 0 4.1 1.9 4.1 4.4 0 2.5-1.8 4.4-4.1 4.4-1.2 0-2.2-.6-2.8-1.6l.1.6zm9.2 1.8l.9-1.9-3.2-6.5c-.2-.4 0-1 .6-1.2.5-.2 1.1-.1 1.3.4l2.4 4.9 2.4-4.9c.2-.4.8-.6 1.4-.4.5.2.8.8.6 1.2l-4.6 9.3c-.2.4-.8.6-1.4.4-.3-.3-.6-.8-.4-1.3zm15.5-21.3c0-1 .9-1.8 2-1.8h11.8c1 0 1.7.9 1.7 2s-.8 2-1.7 2h-9.7v5h7.8c.9 0 1.7.9 1.7 2s-.8 2-1.7 2h-7.8v7.5c0 1-.9 1.8-2 1.8s-2-.8-2-1.8v-18.7h-.1zm20 0c0-1 1-1.7 2.2-1.7 1.2 0 2.2.8 2.2 1.7v18.7c0 1-1 1.7-2.2 1.7-1.2 0-2.2-.8-2.2-1.7v-18.7zm11.1.1c0-1 1.1-1.9 2.5-1.9 1.1 0 2 .5 2.4 1.2l8.5 13.5h.1v-13c0-1 1-1.7 2.1-1.7 1.2 0 2.1.8 2.1 1.7v18.6c0 1-1.1 1.9-2.5 1.9-1.1 0-2-.5-2.4-1.2l-8.5-13.6h-.1v13c0 1-1 1.7-2.1 1.7s-2.1-.8-2.1-1.7V118zm34.2 2.1h-5.5v7h5.5c1.9 0 3.6-1.6 3.6-3.5s-1.6-3.5-3.6-3.5zm-9.8-2.2c0-1 1-1.8 2.1-1.8h7.8c4.4 0 7.9 3.2 7.9 7.5 0 3.2-1.9 5.7-4.5 6.8l2.6 5.1c.5.9 0 2-1.1 2.6-1 .5-2.3.1-2.7-.7l-3.2-6.3h-4.6v5.5c0 1-1 1.8-2.1 1.8s-2.1-.8-2.1-1.8v-18.7h-.1zm32.4 4.3h-.2l-2.9 8h6.1l-3-8zm9.8 13.6c.3.9-.2 1.9-1.3 2.4-1.1.3-2.3 0-2.7-.9l-1.4-3.2h-9l-1.4 3.2c-.4.9-1.6 1.2-2.7.9-1.1-.4-1.6-1.5-1.3-2.4l7.3-18.3c.9-1.9 4.3-1.9 5.1 0l7.4 18.3zm-249.7-35.2c-27.7 0-50.3-22.4-50.3-50S307 .6 334.7.6c14 0 27.4 5.8 37 16.1 2.2 2.4 2.1 6.2-.3 8.5-2.5 2.2-6.3 2.1-8.5-.3-7.3-7.8-17.4-12.2-28.1-12.2-21.1 0-38.2 17-38.2 38 0 20.9 17.1 38 38.2 38 9.8 0 19.2-3.7 26.3-10.4 2.4-2.3 6.2-2.2 8.5.2 2.3 2.4 2.2 6.2-.2 8.5-9.4 8.7-21.8 13.6-34.7 13.6z" fill="#1A65A1"/><path d="M375.3 118.5c.5.7.1 1.5-.8 1.9-.9.4-2.1.1-2.6-.6l-2.8-3.8c-.5-.7-.2-1.5.8-1.9.9-.4 2.1-.1 2.6.6l2.8 3.8z" fill="#EF9795"/><path d="M359.1 96.4c1.2-.5 2.5-.3 3 .5s-.1 1.9-1.3 2.5l-6.5 3.1c-1.2.5-2.5.3-3-.5s.1-1.9 1.3-2.5l6.5-3.1z" fill="#CF3417"/><path d="M593.2 15.5c.8 0 1.4-.7 1.4-1.6 0-.8-.5-1.5-1.4-1.5h-2.7v3.1h2.7zm1.2 6.2l-1.8-4.2h-2.1v4.2h-1.8V10.3h4.5c1.8 0 3.3 1.6 3.3 3.6 0 1.6-.8 2.8-2 3.4l2 4.4h-2.1zm-2.1-13.4c-3.8 0-6.8 3.5-6.8 7.8 0 4.4 3 7.9 6.8 7.9s6.8-3.5 6.8-7.9c-.1-4.3-3.1-7.8-6.8-7.8zm0 16.7c-4.3 0-7.8-4-7.8-8.9 0-4.8 3.5-8.9 7.8-8.9 4.2 0 7.7 4 7.7 8.9s-3.5 8.9-7.7 8.9z" fill="#1A65A1"/></svg>