<svg viewBox="0 0 96 96" fill="none" xmlns="http://www.w3.org/2000/svg"><path d="M68.5 27.5c-1-1-2.7-1-3.801 0l-16.7 16.699L31.302 27.5c-1-1-2.7-1-3.801 0-1 1-1 2.7 0 3.8L44.199 48 27.5 64.699c-1 1-1 2.699 0 3.8.5.5 1.2.801 1.898.801.7 0 1.399-.3 1.899-.8L48 51.8l16.699 16.7c.5.5 1.199.8 1.898.8.7 0 1.399-.3 1.899-.8 1-1 1-2.7 0-3.801L51.8 47.999 68.5 31.302c1-1 1-2.7 0-3.801z" fill="#848484"/><path d="M48 .5C21.801.5.5 21.801.5 48S21.801 95.5 48 95.5 95.5 74.199 95.5 48 74.199.5 48 .5zm0 89.699C24.699 90.199 5.801 71.301 5.801 48S24.699 5.801 48 5.801 90.199 24.699 90.199 48 71.301 90.199 48 90.199z" fill="#848484"/></svg>