<svg id="Layer_1" data-name="Layer 1" xmlns="http://www.w3.org/2000/svg" viewBox="0 0 329 41" width="329" height="41"><defs><style>.cls-1{fill:#fff}.cls-2{fill:#eeb123}</style></defs><path class="cls-1" d="M38.25 28.6h286.63v.5H38.25zM38.44 37.57c.66 0 .93-.4 1.37-1.06l3-4.59h.31L43 37v.11c0 .46.1.48.53.48h.35l-.07.26h-2.59l.08-.26h.36c.5 0 .56-.09.58-.59l.06-1h-1.83l-.35.56a1.4 1.4 0 00-.28.65c0 .26.18.38.55.38h.14l-.08.26h-2.08zm3.86-1.87l.12-2.7-1.75 2.7zM46.15 37.57h.41c.44 0 .53-.14.67-.59l1.35-4.25a1.48 1.48 0 00.07-.37c0-.17-.11-.22-.38-.22h-.41l.07-.22h2.19c1.54 0 2.31.65 2.31 2.07a4 4 0 01-1.57 3.16 3.88 3.88 0 01-2.57.68h-2.23zm1.85-.28c0 .22.14.28.53.28a2.48 2.48 0 001.9-.75 4.55 4.55 0 00.82-1.46 6.17 6.17 0 00.45-2c0-.87-.45-1.21-1.45-1.21-.56 0-.71.05-.87.57l-1.28 4.09a2.27 2.27 0 00-.1.48zM54 37.91c-.42 0-.73-.37-.73-1a3.26 3.26 0 01.49-1.51 4.39 4.39 0 00.64-1.39.32.32 0 00-.34-.35c-.37 0-.86.49-1.3 1.5h-.18c.46-1.12 1-1.7 1.59-1.7a.79.79 0 01.77.89 4.84 4.84 0 01-.76 2 2.26 2.26 0 00-.37 1 .31.31 0 00.32.35c.33 0 .75-.44 1.16-1.31h.19c-.41 1.02-.89 1.52-1.48 1.52zm1.59-5.5a.55.55 0 11-1.09 0 .55.55 0 011.09 0zM57.4 33.5c.45 0 .77.37.77.93a3.52 3.52 0 01-.52 1.62 3.44 3.44 0 00-.58 1.24.44.44 0 00.49.44 2.08 2.08 0 001.4-.92A3 3 0 0059.8 35a.63.63 0 00-.23-.54c-.17-.15-.4-.25-.4-.56a.44.44 0 01.44-.44c.35 0 .58.31.58.81a4.35 4.35 0 01-.91 2.41 2.44 2.44 0 01-1.79 1.22.87.87 0 01-.9-.94 4.13 4.13 0 01.59-1.79 3.15 3.15 0 00.47-1.12c0-.23-.12-.36-.31-.36-.42 0-.88.52-1.28 1.53h-.17c.38-1.1.96-1.72 1.51-1.72zM62.11 37.91c-.42 0-.74-.37-.74-1a3.38 3.38 0 01.49-1.51 4.17 4.17 0 00.64-1.39.32.32 0 00-.33-.35c-.37 0-.86.49-1.3 1.5h-.18c.46-1.12 1-1.7 1.59-1.7a.79.79 0 01.76.89 4.7 4.7 0 01-.76 2 2.26 2.26 0 00-.37 1 .31.31 0 00.32.35c.34 0 .76-.44 1.17-1.31h.18c-.43 1.02-.92 1.52-1.47 1.52zm1.58-5.5a.55.55 0 01-.54.55.55.55 0 01-.54-.55.54.54 0 01.54-.54.53.53 0 01.54.54zM63.83 36.93a.55.55 0 01.54-.59.43.43 0 01.45.43c0 .36-.38.43-.38.59s.28.37.75.37c.71 0 1.23-.41 1.23-.9s-.35-.6-.89-.9-.88-.64-.88-1.16a1.42 1.42 0 011.59-1.29c.72 0 1.24.44 1.24.92a.48.48 0 01-.49.52.42.42 0 01-.45-.41c0-.35.4-.38.4-.52s-.27-.33-.74-.33-1 .35-1 .78.27.54.7.78c.65.36 1.08.63 1.08 1.27a1.58 1.58 0 01-1.76 1.42c-.89 0-1.39-.43-1.39-.98zM69.22 37.91c-.42 0-.73-.37-.73-1a3.26 3.26 0 01.51-1.47 4.17 4.17 0 00.64-1.39.32.32 0 00-.34-.35c-.37 0-.86.49-1.29 1.5h-.18c.45-1.12 1-1.7 1.58-1.7a.79.79 0 01.77.89 4.7 4.7 0 01-.76 2 2.26 2.26 0 00-.37 1 .31.31 0 00.32.35c.34 0 .75-.44 1.17-1.31h.18c-.46.98-.94 1.48-1.5 1.48zm1.59-5.5a.55.55 0 01-.54.55.56.56 0 01-.55-.55.55.55 0 01.55-.54.54.54 0 01.54.54zM71.17 36.1a2.82 2.82 0 01.76-1.89 2.1 2.1 0 011.57-.74 1.64 1.64 0 011.69 1.79 3 3 0 01-.78 1.91 2.22 2.22 0 01-1.58.76 1.71 1.71 0 01-1.66-1.83zm1.59 1.63a1.2 1.2 0 001-.73 5 5 0 00.4-1 5.05 5.05 0 00.31-1.5.82.82 0 00-.87-.85 1.19 1.19 0 00-1 .67 5.68 5.68 0 00-.53 1.25 3.52 3.52 0 00-.25 1.18.89.89 0 00.94.98zM77 34.52a1.42 1.42 0 00.1-.46.19.19 0 00-.2-.21c-.29 0-.74.46-1.14 1.4h-.18c.46-1.13 1-1.7 1.48-1.7s.61.3.61.84a2.87 2.87 0 01-.1.71c.6-1 1.15-1.56 1.68-1.56a.82.82 0 01.78.91 3.6 3.6 0 01-.5 1.55 4.85 4.85 0 00-.53 1.37.32.32 0 00.32.32c.32 0 .8-.45 1.15-1.3h.18c-.36 1-.89 1.5-1.38 1.5s-.8-.37-.8-1a3.67 3.67 0 01.53-1.51 3.68 3.68 0 00.56-1.27.35.35 0 00-.38-.38c-.55 0-1.46 1-2.15 3.13l-.31 1h-.76zM83.07 36.1a2.82 2.82 0 01.76-1.89 2.1 2.1 0 011.57-.74 1.63 1.63 0 011.68 1.79 2.94 2.94 0 01-.77 1.91 2.25 2.25 0 01-1.58.76 1.7 1.7 0 01-1.66-1.83zm1.58 1.63a1.21 1.21 0 001-.73 5 5 0 00.4-1 5 5 0 00.3-1.5.82.82 0 00-.86-.85 1.19 1.19 0 00-1 .67 6.22 6.22 0 00-.49 1.26 3.75 3.75 0 00-.24 1.18.89.89 0 00.89.97zM89.67 33.57h.77l-.09.3h-.77l-1.25 4h-.76l1.25-4h-.74l.09-.3h.74c.33-1.21.82-1.79 1.58-1.79.54 0 .86.31.86.73a.52.52 0 01-.5.56.38.38 0 01-.4-.39c0-.33.34-.43.34-.57s-.11-.17-.27-.17c-.32 0-.42.31-.6.85zM92 37.57h.42c.44 0 .53-.14.67-.59l1.34-4.25a1.22 1.22 0 00.08-.37c0-.17-.11-.22-.38-.22h-.41l.07-.22h4.47l-.71 2.32h-.23a3.66 3.66 0 00.15-.9c0-.89-.45-1.2-1.4-1.2h-.17c-.47 0-.53 0-.68.54l-.62 2h.4c.78 0 1.11-.31 1.35-1.22h.23l-.9 2.88h-.24a2.67 2.67 0 00.17-.8c0-.51-.29-.62-.89-.62h-.2l-.73 2.31a.65.65 0 000 .16c0 .18.14.21.44.21h.42l-.08.26h-2.68zM99 34.52a1.42 1.42 0 00.1-.46.18.18 0 00-.2-.21c-.28 0-.73.46-1.14 1.4h-.17c.45-1.12 1-1.7 1.48-1.7s.62.28.62.84c0 .07 0 .22-.05.44.35-.84.81-1.27 1.26-1.27a.65.65 0 01.64.7.59.59 0 01-.56.65.39.39 0 01-.41-.4c0-.38.44-.43.44-.61s-.08-.13-.19-.13c-.52 0-1.12 1-1.72 2.89l-.36 1.17h-.78zM102.88 37.92a1.25 1.25 0 01-1.21-1.42 3.36 3.36 0 011-2.2 2.27 2.27 0 011.65-.81.83.83 0 01.93.82c0 .8-.92 1.49-2.68 1.76a4.17 4.17 0 00-.21 1 .59.59 0 00.62.63 2.26 2.26 0 001.7-1.32h.2a2.45 2.45 0 01-2 1.54zm1.78-3.71a.5.5 0 00-.51-.56c-.51 0-1 .74-1.53 2.2 1.32-.14 2.04-.93 2.04-1.64zM106.89 34.52a1.42 1.42 0 00.1-.46.19.19 0 00-.2-.21c-.29 0-.74.46-1.14 1.4h-.18c.46-1.13 1-1.7 1.49-1.7s.6.3.6.84a2.87 2.87 0 01-.1.71c.59-1 1.14-1.56 1.68-1.56a.82.82 0 01.78.91 2.64 2.64 0 01-.1.65c.59-1 1.14-1.56 1.67-1.56a.83.83 0 01.79.91 3.62 3.62 0 01-.47 1.58 4.73 4.73 0 00-.55 1.34.32.32 0 00.32.32c.32 0 .8-.45 1.14-1.3h.18c-.35 1-.88 1.5-1.37 1.5s-.8-.37-.8-1a3.71 3.71 0 01.5-1.54 3.6 3.6 0 00.57-1.26.36.36 0 00-.37-.39c-.59 0-1.56 1.14-2.23 3.3l-.24.8h-.76l1-3.33a1.34 1.34 0 00.08-.42.28.28 0 00-.32-.3c-.58 0-1.53 1.17-2.16 3.25l-.25.8h-.76zM113.17 36.1a2.82 2.82 0 01.76-1.89 2.1 2.1 0 011.57-.74 1.63 1.63 0 011.68 1.79 2.94 2.94 0 01-.77 1.91 2.25 2.25 0 01-1.58.76 1.7 1.7 0 01-1.66-1.83zm1.59 1.63a1.21 1.21 0 001-.73 5 5 0 00.4-1 5.05 5.05 0 00.31-1.5.82.82 0 00-.87-.85 1.17 1.17 0 00-1 .67 5.68 5.68 0 00-.53 1.25 3.52 3.52 0 00-.25 1.18.89.89 0 00.94.98zM119 34.52a1.74 1.74 0 00.1-.46.19.19 0 00-.21-.21c-.28 0-.73.46-1.13 1.4h-.18c.45-1.13 1-1.7 1.48-1.7s.61.3.61.84a2.87 2.87 0 01-.1.71c.6-1 1.15-1.56 1.68-1.56a.82.82 0 01.78.91 3.6 3.6 0 01-.46 1.58 4.55 4.55 0 00-.56 1.34.32.32 0 00.32.32c.32 0 .8-.45 1.15-1.3h.17c-.35 1-.88 1.5-1.37 1.5s-.8-.37-.8-1a3.67 3.67 0 01.51-1.54 3.68 3.68 0 00.56-1.27.35.35 0 00-.38-.38c-.56 0-1.47 1-2.15 3.13l-.31 1h-.76zM123.88 37.93a.72.72 0 01-.76-.78 3.09 3.09 0 01.19-.9l.75-2.38h-.74l.1-.3h.74l.46-1.47h.76l-.47 1.47h.82l-.09.3h-.82l-1 3.2a1.25 1.25 0 00-.06.29.29.29 0 00.33.31c.37 0 .79-.44 1.1-1.28h.18c-.37 1.01-.87 1.54-1.49 1.54zM127.46 37.57h.43c.44 0 .53-.13.68-.59l1.34-4.25a1.22 1.22 0 00.08-.37c0-.16-.12-.22-.39-.22h-.46l.07-.22h2.27q2 0 2 1.26c0 .82-.64 1.35-1.91 1.54a1.4 1.4 0 011.19 1.28c0 1.09-1 1.8-2.95 1.8h-2.43zm1.9-.63a1.2 1.2 0 00-.08.35c0 .23.17.28.62.28a2.28 2.28 0 001.26-.23 2.12 2.12 0 00.73-1.62c0-.62-.3-.87-1-.87H130zm1.37-2.35a2 2 0 001.28-.27 2 2 0 00.59-1.43c0-.58-.34-.74-1.12-.74-.58 0-.63.08-.81.66l-.57 1.78zM134.81 37.91c-.65 0-1.12-.54-1.12-1.42a3.5 3.5 0 011-2.31 2 2 0 011.39-.66.86.86 0 011 .87l.25-.82h.67L136.94 37a1.27 1.27 0 00-.08.38.2.2 0 00.22.23c.29 0 .71-.42 1.12-1.26h.17c-.45 1-1 1.53-1.48 1.53-.36 0-.6-.27-.6-.75a2.26 2.26 0 010-.35c-.45.77-.96 1.13-1.48 1.13zm2.08-3.39a.74.74 0 00-.7-.82c-.39 0-.71.28-1 .82a6.9 6.9 0 00-.84 2.6c0 .38.19.58.52.58.6 0 1.35-.73 1.68-1.83l.24-.76a2.13 2.13 0 00.1-.59zM140 34.52a1.42 1.42 0 00.1-.46.19.19 0 00-.2-.21c-.29 0-.74.46-1.14 1.4h-.18c.46-1.13 1-1.7 1.49-1.7s.6.3.6.84a2.87 2.87 0 01-.1.71c.6-1 1.15-1.56 1.68-1.56a.82.82 0 01.78.91 3.6 3.6 0 01-.46 1.58 4.85 4.85 0 00-.56 1.34.32.32 0 00.32.32c.32 0 .8-.45 1.15-1.3h.18c-.36 1-.89 1.5-1.38 1.5s-.8-.37-.8-1a3.67 3.67 0 01.51-1.54 3.68 3.68 0 00.56-1.27.35.35 0 00-.38-.38c-.55 0-1.46 1-2.15 3.13l-.31 1h-.76zM145.37 32.53a.73.73 0 00.06-.26c0-.14-.1-.16-.36-.16h-.33l.08-.24h.26c.46 0 .89 0 1.31-.05l-1.15 3.71h.3c.51 0 .77-.11 1-.57.32-.75.49-1.45 1.2-1.45a.69.69 0 01.72.67.48.48 0 01-.45.52.36.36 0 01-.36-.35c0-.26.27-.32.27-.48a.2.2 0 00-.22-.17c-.43 0-.53.52-.74 1s-.48.8-.89.89c.5.09.76.36.76.71s-.3.82-.3 1.07a.23.23 0 00.26.21c.3 0 .8-.44 1.08-1.26h.2c-.36 1-.94 1.52-1.5 1.52a.67.67 0 01-.72-.72c0-.5.31-.84.31-1.15s-.2-.26-.58-.26h-.38l-.66 2.07h-.8zM38.21 4.28h10v1.1h-1.73a2.32 2.32 0 00-1.48.29 1.72 1.72 0 00-.3 1.21v16.4a1.87 1.87 0 00.3 1.23 1.84 1.84 0 001.28.34h1.92V26h-10v-1.1h1.88a2 2 0 001.29-.29 1.88 1.88 0 00.3-1.28V6.88c0-.63-.09-1-.27-1.16a2.48 2.48 0 00-1.51-.34h-1.68zM49.21 9.27h4l10.06 13.1v-9.48a3 3 0 00-.66-2.12 2.41 2.41 0 00-1.78-.66v-.84h5.85v.84a2.87 2.87 0 00-1.34.25 2.06 2.06 0 00-.77.9 3.17 3.17 0 00-.33 1.44V26h-1.08L52.75 12.3v10.07a2.74 2.74 0 00.69 2 3 3 0 002.13.69V26h-6.36v-.9a2.64 2.64 0 001.89-.78 2.51 2.51 0 00.7-1.81V11.22l-.2-.22a3.59 3.59 0 00-.8-.73 2 2 0 00-.84-.16h-.75zM67 9.27h7v.84h-1.21a2.07 2.07 0 00-1 .18.57.57 0 00-.27.49 1.82 1.82 0 00.21.69l.09.23 4.39 11.18 3.89-10.67a2.41 2.41 0 00.11-.77 1.28 1.28 0 00-.37-1 1.41 1.41 0 00-1-.35h-1.18v-.82h6.16v.84h-.49a1.69 1.69 0 00-1.13.53 4.74 4.74 0 00-1 1.75L76 26.34h-.82l-5.9-14.91a2.3 2.3 0 00-.71-1 1.83 1.83 0 00-1.09-.29H67zM84.86 9.27h13.22l.32 5.63h-.76a7.44 7.44 0 00-1.42-3.73 3.32 3.32 0 00-2.54-1.06h-3.27a.82.82 0 00-.6.22.94.94 0 00-.2.65v5.95H91a2.36 2.36 0 001.86-.83 4 4 0 00.77-2.52h.78v7.72h-.78a4.36 4.36 0 00-.78-2.74 2.46 2.46 0 00-2-.83h-1.24v6.63a.66.66 0 00.24.55 1.3 1.3 0 00.81.19h2.58q4.2 0 4.84-5.36h.81L98.61 26H84.86v-.9H86a1.44 1.44 0 00.94-.23.83.83 0 00.27-.67V11a.82.82 0 00-.24-.65 1.11 1.11 0 00-.74-.22h-1.37zM109.88 10.53l1-1.45h.82l.07 6.08H111a8.15 8.15 0 00-2-4.09 4.48 4.48 0 00-3.15-1.28 3.37 3.37 0 00-2.43.89 2.84 2.84 0 00-1 2.18 2.68 2.68 0 00.36 1.4 2.71 2.71 0 001.07 1 12 12 0 002.71.8 15.53 15.53 0 013.91 1.23 4 4 0 012.24 3.71 5 5 0 01-1.51 3.74 5.39 5.39 0 01-3.92 1.49 6.6 6.6 0 01-4.49-1.67l-1.28 1.55h-.81v-6.42h.81a7.43 7.43 0 002.12 4.22 5.29 5.29 0 003.71 1.54 3.86 3.86 0 002.73-1 3.18 3.18 0 001.05-2.4 2.52 2.52 0 00-.39-1.4 3 3 0 00-1.25-1 19.94 19.94 0 00-3.38-1 10 10 0 01-3.76-1.46 4 4 0 01-1.41-3.26 4.8 4.8 0 015-5 5.38 5.38 0 012 .37 7 7 0 011.95 1.23zM114.21 9.27h13.55l.32 6.3h-.77c-.52-3.7-1.86-5.56-4-5.56a1.37 1.37 0 00-.9.23 1 1 0 00-.24.74v13.33a.71.71 0 00.24.6 1.22 1.22 0 00.78.19h1.68v.9h-7.75v-.9H119a.81.81 0 00.59-.19.64.64 0 00.2-.51V10.88a.81.81 0 00-.25-.65 1.36 1.36 0 00-.84-.22 3.26 3.26 0 00-2.7 1.55 9.58 9.58 0 00-1.3 4h-.82zM129 9.27h5.55l5 13.17 4.59-13.17h5.68v.84h-1.39a1.63 1.63 0 00-1 .22.92.92 0 00-.25.74v13.21a.71.71 0 00.3.61 2 2 0 001.05.21h1.28v.9h-7.64v-.9h1.43a1.44 1.44 0 00.91-.23.72.72 0 00.29-.59V10.11L139.27 26h-.76l-5.94-15.77v12.08a3.6 3.6 0 00.28 1.62 1.91 1.91 0 00.77.82 4 4 0 001.66.35v.9H129v-.9a3.26 3.26 0 002.1-.66 2.88 2.88 0 00.55-2v-11.5a.75.75 0 00-.26-.63 1.71 1.71 0 00-1-.2H129zM151.23 9.27h13.22l.31 5.63H164a7.35 7.35 0 00-1.42-3.73 3.32 3.32 0 00-2.58-1.06h-3.27a.78.78 0 00-.59.22.89.89 0 00-.14.67v5.95h1.43a2.33 2.33 0 001.86-.83 3.92 3.92 0 00.77-2.52h.78v7.7H160a4.24 4.24 0 00-.78-2.74 2.46 2.46 0 00-2-.83H156v6.63a.64.64 0 00.25.55 1.29 1.29 0 00.8.19h2.58q4.2 0 4.85-5.36h.81L165 26h-13.77v-.9h1.13a1.42 1.42 0 00.94-.23.83.83 0 00.27-.67V11a.82.82 0 00-.24-.65 1.07 1.07 0 00-.74-.22h-1.36zM166.37 9.27h4l10.07 13.1v-9.48a3 3 0 00-.66-2.12 2.43 2.43 0 00-1.78-.66v-.84h5.84v.84a2.85 2.85 0 00-1.33.25 2.08 2.08 0 00-.78.9 3.3 3.3 0 00-.32 1.44V26h-1.06l-10.43-13.7v10.07a2.73 2.73 0 00.68 2 3 3 0 002.13.69V26h-6.36v-.9a2.65 2.65 0 001.9-.78 2.55 2.55 0 00.7-1.81V11.22l-.2-.22a3.82 3.82 0 00-.8-.73 2 2 0 00-.84-.16h-.76zM185.13 9.27h13.54l.33 6.3h-.78c-.51-3.7-1.85-5.56-4-5.56a1.34 1.34 0 00-.9.23 1 1 0 00-.24.74v13.33a.74.74 0 00.23.6 1.24 1.24 0 00.78.19h1.68v.9H188v-.9h1.92a.82.82 0 00.59-.19.68.68 0 00.2-.51V10.88a.81.81 0 00-.26-.65 1.31 1.31 0 00-.83-.22 3.26 3.26 0 00-2.73 1.55 9.43 9.43 0 00-1.3 4h-.82zM222.71 5.93L224 4h1.07l.08 7.89h-1a10.76 10.76 0 00-2.69-5.3A5.83 5.83 0 00217.43 5a4.4 4.4 0 00-3.16 1.16A3.73 3.73 0 00213 9a3.5 3.5 0 00.47 1.82 3.42 3.42 0 001.4 1.28 15.57 15.57 0 003.51 1 20.57 20.57 0 015.07 1.6 5.56 5.56 0 012.18 2 5.56 5.56 0 01.71 2.87 6.47 6.47 0 01-2 4.85 7 7 0 01-5.09 1.93 8.55 8.55 0 01-5.83-2.17l-1.65 2h-1.06v-8.36h1.06a9.6 9.6 0 002.75 5.48 6.86 6.86 0 004.82 2A4.94 4.94 0 00223 24a4.1 4.1 0 001.37-3.11 3.26 3.26 0 00-.51-1.82 3.94 3.94 0 00-1.63-1.32 24.79 24.79 0 00-4.38-1.3 13.1 13.1 0 01-4.89-1.9 5.17 5.17 0 01-1.83-4.24 6.23 6.23 0 016.49-6.5 7.09 7.09 0 012.59.48 9.22 9.22 0 012.5 1.64zM227.14 9.27h13.22l.32 5.63h-.76a7.44 7.44 0 00-1.42-3.73 3.32 3.32 0 00-2.5-1.06h-3.27a.78.78 0 00-.59.22.89.89 0 00-.21.65v5.95h1.43a2.33 2.33 0 001.86-.83 3.92 3.92 0 00.77-2.52h.78v7.72H236a4.24 4.24 0 00-.78-2.74 2.46 2.46 0 00-2-.83h-1.31v6.63a.66.66 0 00.24.55 1.32 1.32 0 00.81.19h2.58c2.8 0 4.42-1.79 4.84-5.36h.82l-.31 6.26h-13.75v-.9h1.14a1.42 1.42 0 00.94-.23.83.83 0 00.27-.67V11a.82.82 0 00-.24-.65 1.07 1.07 0 00-.74-.22h-1.37zM242.21 9.27h8.62a5.94 5.94 0 013.88 1.14 3.68 3.68 0 011.38 3 3.53 3.53 0 01-.55 2 3.79 3.79 0 01-1.54 1.33 10.06 10.06 0 01-3.25.74 7.72 7.72 0 012.22.86 3.13 3.13 0 011 1.1 12.3 12.3 0 01.85 2.73 6.42 6.42 0 00.72 2 .82.82 0 00.64.42c.23 0 .44-.17.64-.52a4.37 4.37 0 00.37-1.81h.77q-.22 3.84-2.83 3.84a2.44 2.44 0 01-1.43-.42 2.53 2.53 0 01-.91-1.23 17.93 17.93 0 01-.53-3.19 5.89 5.89 0 00-.53-2.13 2.69 2.69 0 00-1.15-1 4.26 4.26 0 00-1.86-.38h-1.37v6.55a.72.72 0 00.22.59 1.37 1.37 0 00.84.21H250v.9h-7.75v-.9h1.63a1.25 1.25 0 00.8-.21.72.72 0 00.25-.59V11a.76.76 0 00-.26-.64 1.22 1.22 0 00-.79-.22h-1.63zm5.08 7.67h2a5.57 5.57 0 003.11-.75 3 3 0 001.12-2.66 4.38 4.38 0 00-.42-2.09 2.24 2.24 0 00-1.12-1 8.22 8.22 0 00-2.7-.29 4.29 4.29 0 00-1.65.19.68.68 0 00-.32.64zM256.24 9.27h7v.84h-1.22a2 2 0 00-1 .18.57.57 0 00-.27.49 2 2 0 00.2.69l.09.23 4.4 11.18 3.88-10.67a2.15 2.15 0 00.12-.77 1.32 1.32 0 00-.37-1 1.42 1.42 0 00-1-.35h-1.14v-.82h6.16v.84h-.5a1.66 1.66 0 00-1.12.53 4.74 4.74 0 00-1 1.75l-5.16 14h-.82l-5.89-14.91a2.38 2.38 0 00-.71-1 1.85 1.85 0 00-1.09-.29h-.54zM273.88 9.27h7.69v.84h-1.32a1.87 1.87 0 00-1.11.22 1.36 1.36 0 00-.23.93V23.9a1.43 1.43 0 00.2.94 1.39 1.39 0 001 .26h1.48v.9h-7.69v-.9h1.45a1.5 1.5 0 001-.22 1.47 1.47 0 00.22-1V11.26c0-.48-.06-.77-.2-.89a1.92 1.92 0 00-1.16-.26h-1.31zM294 10.57l.77-1.57h.71l.3 6.71H295a11 11 0 00-1.87-4.17 4.24 4.24 0 00-3.34-1.68 4 4 0 00-3.42 1.87q-1.32 1.88-1.32 6.34a9.29 9.29 0 001.51 5.73 4.31 4.31 0 003.61 1.67 4.77 4.77 0 003.41-1.3 6.69 6.69 0 001.79-3.93h.8a7.22 7.22 0 01-2 4.58 6 6 0 01-4.26 1.6 7.28 7.28 0 01-3.83-1.05 7.63 7.63 0 01-2.79-3 9.12 9.12 0 01-1-4.31 10.38 10.38 0 011.08-4.68 8 8 0 012.69-3.38 6.44 6.44 0 013.62-1.1 6 6 0 012.1.37 8.47 8.47 0 012.22 1.3zM297.16 9.27h13.22l.31 5.63h-.75a7.43 7.43 0 00-1.43-3.73 3.3 3.3 0 00-2.51-1.06h-3.26a.78.78 0 00-.6.22.89.89 0 00-.2.65v5.95h1.42a2.36 2.36 0 001.87-.83 4 4 0 00.77-2.52h.78v7.72H306a4.36 4.36 0 00-.78-2.74 2.49 2.49 0 00-2-.83h-1.3v6.63a.66.66 0 00.24.55 1.29 1.29 0 00.8.19h2.58q4.2 0 4.85-5.36h.81l-.29 6.26h-13.75v-.9h1.14a1.41 1.41 0 00.93-.23.83.83 0 00.27-.67V11a.86.86 0 00-.23-.65 1.12 1.12 0 00-.75-.22h-1.36zM322 10.53l1-1.45h.83l.07 6.08h-.75a8.15 8.15 0 00-2.07-4.09A4.48 4.48 0 00318 9.79a3.4 3.4 0 00-2.44.89 2.87 2.87 0 00-.94 2.18 2.68 2.68 0 00.36 1.4 2.71 2.71 0 001.07 1 12 12 0 002.7.8 15.24 15.24 0 013.91 1.23 4 4 0 012.21 3.71 5 5 0 01-1.52 3.74 5.36 5.36 0 01-3.92 1.49A6.59 6.59 0 01315 24.6l-1.28 1.55h-.81v-6.46h.81a7.37 7.37 0 002.12 4.22 5.29 5.29 0 003.71 1.54 3.87 3.87 0 002.73-1 3.18 3.18 0 001-2.4 2.52 2.52 0 00-.39-1.4 3 3 0 00-1.26-1 19.44 19.44 0 00-3.37-1 10.09 10.09 0 01-3.77-1.46 4 4 0 01-1.41-3.26 4.81 4.81 0 015-5 5.38 5.38 0 012 .37 7.12 7.12 0 011.92 1.23z"/><path class="cls-2" d="M4.17 4.32h30.07v21.23H4.17z"/><path d="M20.34 8.66a9.19 9.19 0 00-2.93-1.59 10 10 0 00-8.06 1 4.93 4.93 0 00-2.62 4.13v10.4c0 .2 0 .38.06.4s2 0 2.35 0H12c.13 0 .13 0 .13-.47v-6.3-.42-3.64c0-1.22 2.63-2.18 4.13-1.13.27.2.38.37.45.34l3.86-2.52c.05.02-.08-.07-.23-.2z"/><path d="M14.6 12.68a1.93 1.93 0 101.92 1.93 1.92 1.92 0 00-1.92-1.93zM29.87 13.66a9.07 9.07 0 00-6.53-1.57 3.17 3.17 0 01-.91.05 1.07 1.07 0 01-.09-.24 9.79 9.79 0 00-.62-1.39c-.3-.53-.59-1-.67-1s-3.89 2.46-4 2.58.14.45.14 1.16v2.35c0 1.92-.25 3 1 4.77 1.11 1.6 3.8 2.71 6.23 2.71A8.33 8.33 0 0031 20.44a4.65 4.65 0 00-1.13-6.78zm-5.29 6.05a2.12 2.12 0 112.11-2.12 2.12 2.12 0 01-2.11 2.12z"/><path class="cls-2" d="M24.58 15.48a2.12 2.12 0 102.11 2.11 2.12 2.12 0 00-2.11-2.11z"/></svg>