<svg viewBox="0 0 76 76" fill="none" xmlns="http://www.w3.org/2000/svg"><path d="M63 6.75h-7.281V3.625a3.124 3.124 0 10-6.25 0V6.75H26.53V3.625a3.124 3.124 0 10-6.25 0V6.75H13C6.096 6.75.5 12.348.5 19.25V63A12.5 12.5 0 0013 75.5h50A12.5 12.5 0 0075.5 63V19.25A12.5 12.5 0 0063 6.75zM13 13h7.281v3.125a3.124 3.124 0 106.25 0V13H49.47v3.125a3.124 3.124 0 106.25 0V13H63a6.251 6.251 0 016.25 6.25v6H6.75v-6A6.248 6.248 0 0113 13zm50 56.25H13A6.248 6.248 0 016.75 63V31.5h62.5V63A6.251 6.251 0 0163 69.25z" fill="#3C3C3C"/></svg>