<svg viewBox="0 0 94 94" fill="none" xmlns="http://www.w3.org/2000/svg"><path d="M47 .125a46.862 46.862 0 00-33.145 13.73A46.858 46.858 0 00.125 47a46.862 46.862 0 0013.73 33.145A46.858 46.858 0 0047 93.875a46.862 46.862 0 0033.145-13.73A46.858 46.858 0 0093.875 47a46.926 46.926 0 00-13.746-33.129A46.928 46.928 0 0047 .125zm0 87.5a40.635 40.635 0 01-28.727-11.898 40.63 40.63 0 010-57.454 40.63 40.63 0 0157.454 0A40.63 40.63 0 0187.625 47a40.658 40.658 0 01-11.914 28.711A40.66 40.66 0 0147 87.625z" fill="#3C3C3C"/><path d="M50.125 45.707V18.875a3.124 3.124 0 10-6.25 0V47c0 .828.328 1.625.914 2.21l15.625 15.626a3.13 3.13 0 004.383-.04 3.13 3.13 0 00.039-4.382L50.125 45.707z" fill="#3C3C3C"/></svg>